<svg viewBox="0 0 64 64" fill="none" xmlns="http://www.w3.org/2000/svg">
  <!-- RV body -->
  <rect x="6" y="22" width="46" height="26" rx="4" fill="#3A8FBF" fill-opacity="0.15"/>
  <rect x="6" y="22" width="46" height="26" rx="4" stroke="#3A8FBF" stroke-width="2.5"/>
  <!-- Front cab -->
  <rect x="52" y="32" width="6" height="14" rx="2" fill="#3A8FBF" fill-opacity="0.1"/>
  <path d="M52 32 L58 36 L58 46 L52 46" stroke="#3A8FBF" stroke-width="2" fill="none"/>
  <!-- Windshield -->
  <rect x="53" y="34" width="4" height="7" rx="1.5" fill="#3A8FBF" fill-opacity="0.3"/>
  <!-- Windows -->
  <rect x="10" y="26" width="8" height="6" rx="1.5" fill="#3A8FBF" fill-opacity="0.35"/>
  <rect x="22" y="26" width="8" height="6" rx="1.5" fill="#3A8FBF" fill-opacity="0.35"/>
  <rect x="34" y="26" width="8" height="6" rx="1.5" fill="#3A8FBF" fill-opacity="0.35"/>
  <!-- Door -->
  <rect x="14" y="35" width="10" height="13" rx="2" stroke="#3A8FBF" stroke-width="1.5" fill="none" stroke-opacity="0.5"/>
  <circle cx="23" cy="41" r="1.5" fill="#3A8FBF" fill-opacity="0.5"/>
  <!-- Wheels -->
  <circle cx="18" cy="50" r="5" fill="#3A8FBF" fill-opacity="0.2"/>
  <circle cx="18" cy="50" r="5" stroke="#3A8FBF" stroke-width="2"/>
  <circle cx="18" cy="50" r="2" fill="#3A8FBF" fill-opacity="0.4"/>
  <circle cx="44" cy="50" r="5" fill="#3A8FBF" fill-opacity="0.2"/>
  <circle cx="44" cy="50" r="5" stroke="#3A8FBF" stroke-width="2"/>
  <circle cx="44" cy="50" r="2" fill="#3A8FBF" fill-opacity="0.4"/>
  <!-- Side stripe -->
  <line x1="6" y1="36" x2="52" y2="36" stroke="#3A8FBF" stroke-width="1.5" stroke-opacity="0.25"/>
</svg>
